<?xml version="1.0" encoding="utf-8"?>
<svg xmlns="http://www.w3.org/2000/svg" viewBox="9.5 19.5 341.1736 366.0626" width="341.174px" height="366.063px">
  <g transform="matrix(1, 0, 0, 1, 0, 2.842170943040401e-14)">
    <path style="opacity:1" fill="#0b0c0e" d="M 165.5,19.5 C 197.978,19.5987 225.478,31.2654 248,54.5C 255.55,42.849 264.55,41.5156 275,50.5C 277.282,54.1791 278.449,58.1791 278.5,62.5C 277.395,71.2537 274.895,79.587 271,87.5C 270.333,88.8333 270.333,90.1667 271,91.5C 274.667,96.8333 278.333,102.167 282,107.5C 296.045,123.876 309.711,140.543 323,157.5C 330.51,168.521 335.843,180.521 339,193.5C 340.017,205.645 339.184,217.645 336.5,229.5C 337.647,233.778 338.147,238.112 338,242.5C 334.41,245.046 330.577,247.213 326.5,249C 323.96,251.205 321.793,253.705 320,256.5C 315.056,271.825 311.889,287.492 310.5,303.5C 270.165,303.333 229.832,303.5 189.5,304C 182.118,311.91 172.952,315.744 162,315.5C 151.096,314.754 140.929,311.588 131.5,306C 128.925,305.042 126.259,304.542 123.5,304.5C 117.807,305.34 112.141,306.34 106.5,307.5C 102.55,307.239 98.8834,306.072 95.5,304C 76.1695,303.5 56.8362,303.333 37.5,303.5C 38.476,283.249 33.976,264.249 24,246.5C 21.7206,244.711 19.7206,242.711 18,240.5C 10.689,219.76 9.68904,198.76 15,177.5C 26.8912,151.932 43.7246,130.098 65.5,112C 70.8333,108.667 76.1667,105.333 81.5,102C 73.3085,95.1166 67.4752,86.6166 64,76.5C 61.6079,65.009 64.7746,55.509 73.5,48C 77.8288,46.8485 81.6621,47.6819 85,50.5C 90.3339,61.1759 96.6672,71.1759 104,80.5C 105.388,81.5536 106.888,81.7203 108.5,81C 118.936,72.5674 128.769,63.4007 138,53.5C 141.575,44.7751 145.909,36.4418 151,28.5C 155.053,24.066 159.886,21.066 165.5,19.5 Z"/>
  </g>
  <g transform="matrix(1, 0, 0, 1, 0, 2.842170943040401e-14)">
    <path style="opacity:1" fill="#fafafa" d="M 96.5,255.5 C 98.1667,254.833 99.8333,254.167 101.5,253.5C 110.382,253.732 116.715,249.898 120.5,242C 120.333,241.5 120.167,241 120,240.5C 114.837,247.455 107.837,250.788 99,250.5C 92.9432,251.039 87.9432,249.039 84,244.5C 72.8664,216.841 69.0331,188.174 72.5,158.5C 72.8333,158.5 73.1667,158.5 73.5,158.5C 72.5195,180.137 75.6862,201.137 83,221.5C 84.8287,225.828 87.162,229.828 90,233.5C 86.0957,222.106 82.7623,210.439 80,198.5C 78.0007,183.19 77.5007,167.857 78.5,152.5C 79.1667,152.833 79.8333,153.167 80.5,153.5C 83.5454,175.148 91.3787,194.815 104,212.5C 108.244,217.415 113.077,221.581 118.5,225C 126.493,226.417 133.326,224.25 139,218.5C 139.667,217.833 139.667,217.167 139,216.5C 130.469,221.271 129.136,220.271 135,213.5C 135.667,210.167 135.667,206.833 135,203.5C 133.123,213.399 127.29,217.899 117.5,217C 113.069,213.242 109.402,208.908 106.5,204C 110.24,194.574 110.24,185.074 106.5,175.5C 106.747,172.918 108.08,172.085 110.5,173C 111.256,181.214 112.423,181.381 114,173.5C 115.231,160.88 115.898,148.214 116,135.5C 117.055,128.898 120.888,125.398 127.5,125C 125.559,123.097 123.226,122.264 120.5,122.5C 120.491,120.692 120.991,119.025 122,117.5C 134.231,106.802 148.397,99.9689 164.5,97C 147.057,97.2044 131.724,103.038 118.5,114.5C 106.11,110.141 94.777,103.974 84.5,96C 78.0879,89.9715 73.9213,82.8049 72,74.5C 79.6138,89.4468 91.1138,100.28 106.5,107C 108.167,107.667 109.833,107.667 111.5,107C 92.2603,96.5928 78.927,81.0928 71.5,60.5C 72.6351,58.2011 73.9684,56.0344 75.5,54C 77.1124,53.2797 78.6124,53.4464 80,54.5C 87.0568,69.7982 96.8901,82.9648 109.5,94C 112.866,96.1841 116.533,97.5175 120.5,98C 121.264,100.069 121.764,102.236 122,104.5C 128.165,98.1826 132.831,90.8493 136,82.5C 140.132,69.7697 144.466,57.1031 149,44.5C 151.634,38.7279 155.134,33.5612 159.5,29C 165.79,25.7189 172.457,24.7189 179.5,26C 199.894,29.3659 218.228,37.3659 234.5,50C 238.424,53.4169 241.757,57.2503 244.5,61.5C 241.028,69.47 236.528,76.8034 231,83.5C 223.636,91.198 215.97,98.5313 208,105.5C 204.744,110.236 204.744,114.902 208,119.5C 208.241,116.711 208.908,114.044 210,111.5C 230.328,96.5002 245.661,77.5002 256,54.5C 259.257,51.5715 263.091,50.7382 267.5,52C 271.776,55.2176 271.109,56.8843 265.5,57C 264,58.5 262.5,60 261,61.5C 253.349,81.1393 241.183,97.306 224.5,110C 234.364,108.378 243.698,105.378 252.5,101C 243.453,108.691 233.12,114.024 221.5,117C 227.937,116.976 234.271,116.309 240.5,115C 253.354,126.251 258.187,140.418 255,157.5C 253.748,165.923 250.915,173.756 246.5,181C 246.833,181.167 247.167,181.333 247.5,181.5C 256.984,171.68 261.65,159.847 261.5,146C 261.398,132.632 256.732,121.132 247.5,111.5C 252.5,108.333 257.5,105.167 262.5,102C 266.898,100.622 270.398,101.788 273,105.5C 286.289,122.457 299.955,139.124 314,155.5C 322.963,167.094 328.963,180.094 332,194.5C 332.785,206.772 331.951,218.939 329.5,231C 329.543,234.168 330.209,237.168 331.5,240C 324.251,240.119 318.751,236.952 315,230.5C 311.468,218.903 308.135,207.236 305,195.5C 304.333,192.833 304.333,190.167 305,187.5C 306.089,184.694 307.089,182.027 308,179.5C 305.833,181.83 304.166,184.497 303,187.5C 302.424,197.675 302.591,207.841 303.5,218C 305.36,233.474 298.693,240.141 283.5,238C 282.667,237.167 281.833,236.333 281,235.5C 280.946,225.254 280.113,215.088 278.5,205C 280.588,199.991 283.088,195.158 286,190.5C 290.361,179.763 291.361,168.763 289,157.5C 288.611,165.447 286.944,173.113 284,180.5C 280.333,187.5 276.667,194.5 273,201.5C 274.637,228.419 267.137,252.419 250.5,273.5C 248.972,274.861 247.305,276.028 245.5,277C 240.833,277.667 236.167,277.667 231.5,277C 225.992,276.27 222.659,273.27 221.5,268C 222.86,259.607 227.194,253.274 234.5,249C 244.689,245.13 253.523,239.297 261,231.5C 262.842,228.246 263.675,224.746 263.5,221C 261.909,214.925 261.409,208.758 262,202.5C 265.298,198.2 268.965,194.2 273,190.5C 275.804,186.557 277.804,182.223 279,177.5C 282.305,164.346 283.638,151.013 283,137.5C 281.832,129.997 278.665,123.497 273.5,118C 269.265,115.258 264.931,114.925 260.5,117C 268.073,117.901 272.906,122.068 275,129.5C 277.765,147.145 276.431,164.478 271,181.5C 267.749,186.755 263.749,191.422 259,195.5C 257.667,198.167 256.333,200.833 255,203.5C 255.988,210.792 256.654,218.125 257,225.5C 254.872,228.63 252.372,231.463 249.5,234C 243.325,237.588 236.991,240.922 230.5,244C 222.784,249.05 217.284,255.883 214,264.5C 210.696,275.764 205.863,286.264 199.5,296C 199.167,296.167 198.833,296.333 198.5,296.5C 197.369,294.926 197.202,293.259 198,291.5C 203.058,279.05 208.391,266.717 214,254.5C 220.63,243.403 228.797,234.403 238.5,227.5C 224.304,233.863 213.471,243.863 206,257.5C 200.624,271.297 194.291,284.63 187,297.5C 179.449,306.86 169.616,310.693 157.5,309C 154.471,308.461 151.471,307.794 148.5,307C 139.831,302.498 130.831,298.831 121.5,296C 116.051,295.104 110.718,295.437 105.5,297C 108.7,297.101 111.7,297.768 114.5,299C 112.224,300.364 109.724,301.197 107,301.5C 94.4949,298.763 84.8282,292.096 78,281.5C 76.9963,278.007 77.4963,274.841 79.5,272C 87.3525,272.389 95.1858,273.222 103,274.5C 112.045,274.818 120.212,272.318 127.5,267C 130.279,263.954 131.779,260.454 132,256.5C 127.299,262.772 121.132,266.939 113.5,269C 107.167,269.667 100.833,269.667 94.5,269C 89.429,267.427 85.7624,264.26 83.5,259.5C 83.9767,258.522 84.6433,257.689 85.5,257C 90.82,258.424 96.32,259.257 102,259.5C 108.304,259.799 114.137,258.299 119.5,255C 123.093,252.311 124.926,248.811 125,244.5C 122.382,249.116 118.549,252.283 113.5,254C 107.912,255.289 102.245,255.789 96.5,255.5 Z"/>
  </g>
  <g transform="matrix(1, 0, 0, 1, 0, 2.842170943040401e-14)">
    <path style="opacity:1" fill="#f1f1f2" d="M 132.5,67.5 C 133.376,67.3691 134.043,67.7025 134.5,68.5C 131.865,75.7681 128.698,82.7681 125,89.5C 119.974,92.4107 115.474,91.5774 111.5,87C 118.743,80.5839 125.743,74.0839 132.5,67.5 Z"/>
  </g>
  <g transform="matrix(1, 0, 0, 1, 0, 2.842170943040401e-14)">
    <path style="opacity:1" fill="#ebebeb" d="M 271.5,64.5 C 272.01,72.0792 269.843,79.0792 265,85.5C 256.729,95.2044 246.562,101.704 234.5,105C 246.597,97.2345 257.097,87.7345 266,76.5C 268.119,72.5977 269.952,68.5977 271.5,64.5 Z"/>
  </g>
  <g transform="matrix(1, 0, 0, 1, 0, 2.842170943040401e-14)">
    <path style="opacity:1" fill="#fafafa" d="M 85.5,106.5 C 95.4581,111.643 105.791,115.977 116.5,119.5C 116.662,121.527 116.495,123.527 116,125.5C 113.89,128.492 112.557,131.825 112,135.5C 111.5,146.161 111.333,156.828 111.5,167.5C 107.112,166.943 103.945,168.61 102,172.5C 103.344,178.896 104.51,185.396 105.5,192C 105.695,194.793 105.029,197.293 103.5,199.5C 94.0151,184.217 88.1818,167.55 86,149.5C 85.2574,136.058 85.5907,122.725 87,109.5C 67.1361,137.803 60.1361,169.136 66,203.5C 68.6636,214.826 71.3302,226.16 74,237.5C 74.888,242.618 74.5547,247.618 73,252.5C 69.1156,256.235 64.949,256.402 60.5,253C 50.5542,247.276 46.3875,238.776 48,227.5C 50.3333,219.167 52.6667,210.833 55,202.5C 57.1694,193.639 55.1694,185.972 49,179.5C 50.487,185.982 50.8204,192.649 50,199.5C 46.3699,209.222 43.8699,219.222 42.5,229.5C 42.4222,234.282 43.4222,238.782 45.5,243C 34.9149,243.958 27.0816,239.791 22,230.5C 13.9867,207.019 16.3201,184.686 29,163.5C 43.8494,140.39 62.6827,121.39 85.5,106.5 Z"/>
  </g>
  <g transform="matrix(1, 0, 0, 1, 0, 2.842170943040401e-14)">
    <path style="opacity:1" fill="#0f1011" d="M 187.5,119.5 C 199.501,118.675 206.167,124.175 207.5,136C 204.449,148.277 200.949,160.443 197,172.5C 196.186,174.902 196.353,177.235 197.5,179.5C 198.478,179.023 199.311,178.357 200,177.5C 200.621,184.978 198.121,191.144 192.5,196C 182.092,197.341 180.592,194.841 188,188.5C 188.667,187.167 189.333,185.833 190,184.5C 193.95,168.204 198.45,152.037 203.5,136C 202.68,130.357 199.68,126.357 194.5,124C 190.091,123.468 185.757,123.468 181.5,124C 183.389,122.236 185.389,120.736 187.5,119.5 Z"/>
  </g>
  <g transform="matrix(1, 0, 0, 1, 0, 2.842170943040401e-14)">
    <path style="opacity:1" fill="#121314" d="M 150.5,134.5 C 151.222,134.918 151.722,135.584 152,136.5C 152.167,139.333 152.333,142.167 152.5,145C 151.487,153.9 150.321,162.733 149,171.5C 155.812,171.092 162.645,171.592 169.5,173C 176.445,181.148 175.778,188.814 167.5,196C 166.833,196.667 166.167,196.667 165.5,196C 169.645,191.23 171.145,185.73 170,179.5C 168.261,176.554 165.761,175.054 162.5,175C 166.889,179.438 167.722,184.604 165,190.5C 161.524,196.337 156.691,200.17 150.5,202C 153.333,199.167 156.167,196.333 159,193.5C 161.285,189.813 162.452,185.813 162.5,181.5C 148.717,178.856 137.217,172.189 128,161.5C 126.578,173.222 128.078,184.555 132.5,195.5C 132.154,196.696 131.654,196.696 131,195.5C 128.449,191.065 126.449,186.399 125,181.5C 124.916,186.557 125.249,191.557 126,196.5C 124.92,194.004 123.586,191.67 122,189.5C 121.482,193.575 121.482,197.575 122,201.5C 117.857,198.081 116.524,193.748 118,188.5C 119.552,186.232 120.385,183.732 120.5,181C 118.827,169.912 119.827,159.078 123.5,148.5C 129.823,155.656 136.656,162.323 144,168.5C 145.917,165.085 147.25,161.419 148,157.5C 149.272,149.873 150.105,142.206 150.5,134.5 Z"/>
  </g>
  <g transform="matrix(1, 0, 0, 1, 0, 2.842170943040401e-14)">
    <path style="opacity:1" fill="#8f8f8f" d="M 80.5,153.5 C 79.8333,153.167 79.1667,152.833 78.5,152.5C 79.2456,147.521 79.9122,147.854 80.5,153.5 Z"/>
  </g>
  <g transform="matrix(1, 0, 0, 1, 0, 2.842170943040401e-14)">
    <path style="opacity:1" fill="#8e8f8f" d="M 73.5,158.5 C 73.1667,158.5 72.8333,158.5 72.5,158.5C 72.687,156.436 73.187,154.436 74,152.5C 74.7891,154.712 74.6225,156.712 73.5,158.5 Z"/>
  </g>
  <g transform="matrix(1, 0, 0, 1, 0, 2.842170943040401e-14)">
    <path style="opacity:1" fill="#0f1012" d="M 212.5,177.5 C 217.031,177.098 220.365,178.765 222.5,182.5C 222.333,183.167 222.167,183.833 222,184.5C 219.667,183.167 217.333,183.167 215,184.5C 215.505,189.782 215.505,195.116 215,200.5C 213.849,205.987 210.515,208.987 205,209.5C 201.322,208.296 197.655,208.296 194,209.5C 184.281,205.846 184.448,204.012 194.5,204C 196.96,202.542 199.127,200.709 201,198.5C 203.057,192.719 205.39,187.053 208,181.5C 209.397,179.93 210.897,178.596 212.5,177.5 Z"/>
  </g>
  <g transform="matrix(1, 0, 0, 1, 0, 2.842170943040401e-14)">
    <path style="opacity:1" fill="#e9e9ea" d="M 209.5,189.5 C 210.496,189.414 211.329,189.748 212,190.5C 212.808,192.579 212.641,194.579 211.5,196.5C 210.914,196.291 210.414,195.957 210,195.5C 209.505,193.527 209.338,191.527 209.5,189.5 Z"/>
  </g>
  <g transform="matrix(1, 0, 0, 1, 0, 2.842170943040401e-14)">
    <path style="opacity:1" fill="#18191a" d="M 218.5,193.5 C 219.966,194.347 220.8,195.68 221,197.5C 222.249,204.597 221.083,211.264 217.5,217.5C 219.274,225.948 218.274,226.448 214.5,219C 209.131,216.664 203.797,214.33 198.5,212C 214.414,215.582 221.081,209.415 218.5,193.5 Z"/>
  </g>
  <g transform="matrix(1, 0, 0, 1, 0, 2.842170943040401e-14)">
    <path style="opacity:1" fill="#c5c5c5" d="M 202.5,204.5 C 204.476,205.427 204.809,206.76 203.5,208.5C 201.358,207.563 201.024,206.23 202.5,204.5 Z"/>
  </g>
  <g transform="matrix(1, 0, 0, 1, 0, 2.842170943040401e-14)">
    <path style="opacity:1" fill="#1d1e1f" d="M 243.5,214.5 C 252.194,214.885 254.361,218.885 250,226.5C 247.851,228.661 245.351,229.828 242.5,230C 248.657,224.98 248.991,219.814 243.5,214.5 Z"/>
  </g>
  <g transform="matrix(1, 0, 0, 1, 0, 2.842170943040401e-14)">
    <path style="opacity:1" fill="#fcfcfc" d="M 296.5,244.5 C 300.967,244.133 305.3,244.633 309.5,246C 311.343,248.352 312.343,251.019 312.5,254C 308.382,267.799 305.382,281.799 303.5,296C 281.836,296.5 260.169,296.667 238.5,296.5C 238.372,294.345 238.872,292.345 240,290.5C 253.052,279.454 265.552,267.62 277.5,255C 283.316,250.428 289.649,246.928 296.5,244.5 Z"/>
  </g>
  <g transform="matrix(1, 0, 0, 1, 0, 2.842170943040401e-14)">
    <path style="opacity:1" fill="#676769" d="M 101.5,253.5 C 99.8333,254.167 98.1667,254.833 96.5,255.5C 95.5266,255.013 94.5266,254.513 93.5,254C 96.146,253.503 98.8127,253.336 101.5,253.5 Z"/>
  </g>
  <g transform="matrix(1, 0, 0, 1, 0, 2.842170943040401e-14)">
    <path style="opacity:1" fill="#fafafa" d="M 43.5,253.5 C 53.9816,256.157 63.4816,260.824 72,267.5C 68.8078,279.189 71.9744,288.689 81.5,296C 69.5046,296.5 57.5046,296.667 45.5,296.5C 45.6655,292.486 45.4988,288.486 45,284.5C 42.1043,275.362 40.771,266.029 41,256.5C 42.045,255.627 42.8783,254.627 43.5,253.5 Z"/>
  </g>
  <g transform="matrix(1, 0, 0, 1, 0, 2.842170943040401e-14)">
    <path style="opacity:1" fill="#0f1011" d="M 151.5,254.5 C 154.026,256.535 156.859,257.868 160,258.5C 164.333,257.167 168.667,255.833 173,254.5C 181.802,254.628 185.469,258.961 184,267.5C 175.977,258.154 168.643,258.821 162,269.5C 159.806,272.554 158.139,275.888 157,279.5C 156.05,273.883 156.883,268.55 159.5,263.5C 153.97,262.973 151.303,259.973 151.5,254.5 Z"/>
  </g>
  <g transform="matrix(1, 0, 0, 1, 0, 2.842170943040401e-14)">
    <path style="opacity:1" fill="#090a0c" d="M 170.5,264.5 C 177.065,263.422 179.232,266.089 177,272.5C 174.652,279.378 170.318,281.378 164,278.5C 162.669,272.163 164.836,267.497 170.5,264.5 Z"/>
  </g>
  <g transform="matrix(1, 0, 0, 1, 0, 2.842170943040401e-14)">
    <path style="opacity:1" fill="#151516" d="M 179.5,273.5 C 180.059,278.263 178.393,282.43 174.5,286C 170.043,288.338 166.043,287.838 162.5,284.5C 171.039,285.074 176.706,281.408 179.5,273.5 Z"/>
  </g>
  <g transform="matrix(1, 0, 0, 1, 0, 2.842170943040401e-14)">
    <path style="opacity:1" fill="#111113" d="M 85.5,284.5 C 85.56,283.957 85.8933,283.624 86.5,283.5C 94.4515,284.303 102.451,284.803 110.5,285C 120.605,287.235 130.772,289.069 141,290.5C 145.586,290.179 150.086,289.679 154.5,289C 149.231,291.823 143.564,293.323 137.5,293.5C 128.403,292.581 119.403,291.081 110.5,289C 104.167,288.667 97.8333,288.333 91.5,288C 89.3083,287.074 87.3083,285.907 85.5,284.5 Z"/>
  </g>
  <g transform="matrix(1, 0, 0, 1, 0, 2.842170943040401e-14)">
    <path style="opacity:1" fill="#f8f8f8" d="M 222.5,284.5 C 229.825,283.992 232.658,287.326 231,294.5C 227.851,296.362 224.351,297.029 220.5,296.5C 220.016,292.173 220.682,288.173 222.5,284.5 Z"/>
  </g>
  <g transform="matrix(1, 0, 0, 1, 0, 2.842170943040401e-14)">
    <path style="opacity:1" fill="#ddddde" d="M 211.5,289.5 C 212.117,289.611 212.617,289.944 213,290.5C 213.495,292.473 213.662,294.473 213.5,296.5C 211.473,296.662 209.473,296.495 207.5,296C 209.221,294.056 210.554,291.89 211.5,289.5 Z"/>
  </g>
  <g transform="matrix(1, 0, 0, 1, 0, 2.842170943040401e-14)">
    <path style="opacity:1" fill="#f9a935" d="M 9.5,321.5 C 31.1692,321.333 52.8359,321.5 74.5,322C 81.4742,325.118 83.6409,330.285 81,337.5C 77.8212,341.506 73.6545,343.506 68.5,343.5C 72.5,347.167 76.5,350.833 80.5,354.5C 76.5411,355.66 72.5411,355.827 68.5,355C 63.8663,351.368 59.533,347.368 55.5,343C 44.505,342.5 33.505,342.333 22.5,342.5C 22.5,346.833 22.5,351.167 22.5,355.5C 18.1667,355.5 13.8333,355.5 9.5,355.5C 9.5,348.833 9.5,342.167 9.5,335.5C 29.5028,335.667 49.5028,335.5 69.5,335C 70.8333,333.667 70.8333,332.333 69.5,331C 49.5028,330.5 29.5028,330.333 9.5,330.5C 9.5,327.5 9.5,324.5 9.5,321.5 Z"/>
  </g>
  <g transform="matrix(1, 0, 0, 1, 0, 2.842170943040401e-14)">
    <path style="opacity:1" fill="#f6a735" d="M 161.5,321.5 C 161.5,332.5 161.5,343.5 161.5,354.5C 157.833,354.5 154.167,354.5 150.5,354.5C 150.817,350.298 150.483,346.298 149.5,342.5C 133.5,342.5 117.5,342.5 101.5,342.5C 101.5,346.833 101.5,351.167 101.5,355.5C 97.5,355.5 93.5,355.5 89.5,355.5C 89.5,344.167 89.5,332.833 89.5,321.5C 93.5,321.5 97.5,321.5 101.5,321.5C 101.5,325.5 101.5,329.5 101.5,333.5C 117.5,333.5 133.5,333.5 149.5,333.5C 149.5,329.5 149.5,325.5 149.5,321.5C 153.5,321.5 157.5,321.5 161.5,321.5 Z"/>
  </g>
  <g transform="matrix(1, 0, 0, 1, 0, 2.842170943040401e-14)">
    <path style="opacity:1" fill="#be8a3d" d="M 161.5,321.5 C 162.495,332.654 162.828,343.988 162.5,355.5C 158.167,355.5 153.833,355.5 149.5,355.5C 149.5,351.167 149.5,346.833 149.5,342.5C 150.483,346.298 150.817,350.298 150.5,354.5C 154.167,354.5 157.833,354.5 161.5,354.5C 161.5,343.5 161.5,332.5 161.5,321.5 Z"/>
  </g>
  <g transform="matrix(1, 0, 0, 1, 0, 2.842170943040401e-14)">
    <path style="opacity:1" fill="#f9a935" d="M 168.5,321.5 C 172.5,321.5 176.5,321.5 180.5,321.5C 180.5,332.833 180.5,344.167 180.5,355.5C 176.5,355.5 172.5,355.5 168.5,355.5C 168.5,344.167 168.5,332.833 168.5,321.5 Z"/>
  </g>
  <g transform="matrix(1, 0, 0, 1, 0, 2.842170943040401e-14)">
    <path style="opacity:1" fill="#f8a835" d="M 187.5,321.5 C 192.179,321.334 196.845,321.501 201.5,322C 216.526,329.931 231.692,337.764 247,345.5C 247.5,337.507 247.666,329.507 247.5,321.5C 251.5,321.5 255.5,321.5 259.5,321.5C 259.5,332.833 259.5,344.167 259.5,355.5C 255.154,355.666 250.821,355.499 246.5,355C 231.167,347 215.833,339 200.5,331C 196.179,330.501 191.846,330.334 187.5,330.5C 187.5,327.5 187.5,324.5 187.5,321.5 Z"/>
  </g>
  <g transform="matrix(1, 0, 0, 1, 0, 2.842170943040401e-14)">
    <path style="opacity:1" fill="#f4a636" d="M 187.5,334.5 C 191.5,334.5 195.5,334.5 199.5,334.5C 199.5,341.5 199.5,348.5 199.5,355.5C 195.5,355.5 191.5,355.5 187.5,355.5C 187.5,348.5 187.5,341.5 187.5,334.5 Z"/>
  </g>
  <g transform="matrix(1, 0, 0, 1, 0, 2.842170943040401e-14)">
    <path style="opacity:1" fill="#f6f6f6" d="M 67.5,360.5 C 83.1702,360.333 98.8369,360.5 114.5,361C 115.423,363.041 115.756,365.208 115.5,367.5C 102.5,367.5 89.5,367.5 76.5,367.5C 76.5,368.5 76.5,369.5 76.5,370.5C 81.1667,370.5 85.8333,370.5 90.5,370.5C 90.5,372.5 90.5,374.5 90.5,376.5C 85.8333,376.5 81.1667,376.5 76.5,376.5C 76.5,377.5 76.5,378.5 76.5,379.5C 89.1667,379.5 101.833,379.5 114.5,379.5C 114.5,381.5 114.5,383.5 114.5,385.5C 98.8333,385.5 83.1667,385.5 67.5,385.5C 67.5,377.167 67.5,368.833 67.5,360.5 Z"/>
  </g>
  <g transform="matrix(1, 0, 0, 1, 0, 2.842170943040401e-14)">
    <path style="opacity:1" fill="#fafafa" d="M 124.5,360.5 C 127.5,360.5 130.5,360.5 133.5,360.5C 133.5,366.833 133.5,373.167 133.5,379.5C 146.5,379.5 159.5,379.5 172.5,379.5C 172.5,381.5 172.5,383.5 172.5,385.5C 156.5,385.5 140.5,385.5 124.5,385.5C 124.5,377.167 124.5,368.833 124.5,360.5 Z"/>
  </g>
  <g transform="matrix(1, 0, 0, 1, 0, 2.842170943040401e-14)">
    <path style="opacity:1" fill="#fefefe" d="M 190.5,361.5 C 190.5,367.5 190.5,373.5 190.5,379.5C 203.5,379.5 216.5,379.5 229.5,379.5C 229.5,381.5 229.5,383.5 229.5,385.5C 213.833,385.5 198.167,385.5 182.5,385.5C 182.5,377.5 182.5,369.5 182.5,361.5C 185.167,361.5 187.833,361.5 190.5,361.5 Z"/>
  </g>
  <g transform="matrix(1, 0, 0, 1, 0, 2.842170943040401e-14)">
    <path style="opacity:1" fill="#f6f6f6" d="M 234.5,360.5 C 250.17,360.333 265.837,360.5 281.5,361C 282.423,363.041 282.756,365.208 282.5,367.5C 269.5,367.5 256.5,367.5 243.5,367.5C 243.5,368.5 243.5,369.5 243.5,370.5C 248.167,370.5 252.833,370.5 257.5,370.5C 257.5,372.5 257.5,374.5 257.5,376.5C 252.833,376.5 248.167,376.5 243.5,376.5C 243.5,377.5 243.5,378.5 243.5,379.5C 256.167,379.5 268.833,379.5 281.5,379.5C 281.5,381.5 281.5,383.5 281.5,385.5C 265.833,385.5 250.167,385.5 234.5,385.5C 234.5,377.167 234.5,368.833 234.5,360.5 Z"/>
  </g>
  <g transform="matrix(1, 0, 0, 1, 0, 2.842170943040401e-14)">
    <path style="opacity:1" fill="#f7f7f7" d="M 287.5,361.5 C 303.837,361.333 320.17,361.5 336.5,362C 342.9,370.211 340.9,375.211 330.5,377C 333.203,380.038 336.203,382.705 339.5,385C 336.167,385.667 332.833,385.667 329.5,385C 326.797,381.962 323.797,379.295 320.5,377C 312.507,376.5 304.507,376.334 296.5,376.5C 296.5,379.5 296.5,382.5 296.5,385.5C 293.5,385.5 290.5,385.5 287.5,385.5C 287.5,380.5 287.5,375.5 287.5,370.5C 302.182,370.833 316.848,370.499 331.5,369.5C 331.291,368.914 330.957,368.414 330.5,368C 316.171,367.5 301.837,367.333 287.5,367.5C 287.5,365.5 287.5,363.5 287.5,361.5 Z"/>
  </g>
  <g transform="matrix(1, 0, 0, 1, 0, 2.842170943040401e-14)">
    <path style="opacity:1" fill="#f8f8f8" d="M 61.5,361.5 C 61.5,363.5 61.5,365.5 61.5,367.5C 47.6565,367.171 33.9898,367.504 20.5,368.5C 19.2617,368.81 19.2617,369.31 20.5,370C 31.8333,370.333 43.1667,370.667 54.5,371C 60.3014,371.788 63.1347,374.955 63,380.5C 61.3626,382.81 59.196,384.31 56.5,385C 40.8369,385.5 25.1702,385.667 9.5,385.5C 9.5,383.5 9.5,381.5 9.5,379.5C 23.8488,379.833 38.1821,379.499 52.5,378.5C 52.2907,377.914 51.9574,377.414 51.5,377C 38.7636,376.942 26.0969,376.275 13.5,375C 7.82386,369.712 8.49053,365.378 15.5,362C 30.8297,361.5 46.163,361.333 61.5,361.5 Z"/>
  </g>
  <g transform="matrix(1, 0, 0, 1, 0, 2.842170943040401e-14)">
    <path style="opacity:1" fill="#838383" d="M 61.5,361.5 C 62.4682,363.607 62.8016,365.941 62.5,368.5C 48.5,368.5 34.5,368.5 20.5,368.5C 33.9898,367.504 47.6565,367.171 61.5,367.5C 61.5,365.5 61.5,363.5 61.5,361.5 Z"/>
  </g>
  <g transform="matrix(1, 0, 0, 1, 0, 2.842170943040401e-14)">
    <path style="opacity:1" fill="#808080" d="M 190.5,361.5 C 191.489,366.975 191.822,372.642 191.5,378.5C 204.344,378.171 217.011,378.505 229.5,379.5C 216.5,379.5 203.5,379.5 190.5,379.5C 190.5,373.5 190.5,367.5 190.5,361.5 Z"/>
  </g>
  <text style="fill: rgb(249, 169, 54); font-family: Silom; font-size: 73px; font-weight: 700; white-space: pre;" transform="matrix(1.9679690599441528, 0, 0, 0.8488250970840454, -272.33648681640625, 51.510482788085966)" x="267.88" y="358.652">o</text>
</svg>